<svg width="1019" height="91" viewBox="0 0 1019 91" fill="none" xmlns="http://www.w3.org/2000/svg">
<path fill-rule="evenodd" clip-rule="evenodd" d="M143.076 90.272C132.164 90.272 123.484 87.296 117.036 81.344C110.588 75.3093 107.364 66.712 107.364 55.552V34.72C107.364 23.56 110.588 15.004 117.036 9.052C123.484 3.01733 132.164 0 143.076 0C153.988 0 162.668 3.01733 169.116 9.052C175.564 15.004 178.788 23.56 178.788 34.72V55.552C178.788 66.712 175.564 75.3093 169.116 81.344C162.668 87.296 153.988 90.272 143.076 90.272ZM143.076 75.64C149.193 75.64 153.946 73.8627 157.336 70.308C160.725 66.7533 162.42 62 162.42 56.048V34.224C162.42 28.272 160.725 23.5187 157.336 19.964C153.946 16.4093 149.193 14.632 143.076 14.632C137.041 14.632 132.288 16.4093 128.816 19.964C125.426 23.5187 123.732 28.272 123.732 34.224V56.048C123.732 62 125.426 66.7533 128.816 70.308C132.288 73.8627 137.041 75.64 143.076 75.64ZM200.833 81.344C207.281 87.296 215.961 90.272 226.873 90.272C237.785 90.272 246.465 87.296 252.913 81.344C259.361 75.3093 262.585 66.712 262.585 55.552V34.72C262.585 23.56 259.361 15.004 252.913 9.052C246.465 3.01733 237.785 0 226.873 0C215.961 0 207.281 3.01733 200.833 9.052C194.385 15.004 191.161 23.56 191.161 34.72V55.552C191.161 66.712 194.385 75.3093 200.833 81.344ZM241.133 70.308C237.743 73.8627 232.99 75.64 226.873 75.64C220.838 75.64 216.085 73.8627 212.613 70.308C209.223 66.7533 207.529 62 207.529 56.048V34.224C207.529 28.272 209.223 23.5187 212.613 19.964C216.085 16.4093 220.838 14.632 226.873 14.632C232.99 14.632 237.743 16.4093 241.133 19.964C244.522 23.5187 246.217 28.272 246.217 34.224V56.048C246.217 62 244.522 66.7533 241.133 70.308ZM368.816 81.344C374.933 87.296 383.076 90.272 393.244 90.272C403.329 90.272 411.017 87.4613 416.308 81.84C421.681 76.136 424.368 68.4067 424.368 58.652V57.04H416.432V58.9C416.432 66.0093 414.53 71.8373 410.728 76.384C407.008 80.848 401.18 83.08 393.244 83.08C385.225 83.08 378.942 80.6413 374.396 75.764C369.932 70.8867 367.7 64.0253 367.7 55.18V35.092C367.7 26.2467 369.932 19.3853 374.396 14.508C378.942 9.63067 385.225 7.19201 393.244 7.19201C401.18 7.19201 407.008 9.46534 410.728 14.012C414.53 18.476 416.432 24.2627 416.432 31.372V32.24H424.368V31.62C424.368 21.8653 421.681 14.1773 416.308 8.556C411.017 2.852 403.329 0 393.244 0C383.076 0 374.933 3.01733 368.816 9.052C362.781 15.004 359.764 23.7667 359.764 35.34V54.932C359.764 66.5053 362.781 75.3093 368.816 81.344ZM472.557 90.272C462.389 90.272 454.288 87.296 448.253 81.344C442.219 75.3093 439.201 66.5053 439.201 54.932V35.34C439.201 23.7667 442.219 15.004 448.253 9.052C454.288 3.01733 462.389 0 472.557 0C482.725 0 490.827 3.01733 496.861 9.052C502.896 15.004 505.913 23.7667 505.913 35.34V54.932C505.913 66.5053 502.896 75.3093 496.861 81.344C490.827 87.296 482.725 90.272 472.557 90.272ZM472.557 83.08C480.659 83.08 486.9 80.6413 491.281 75.764C495.745 70.8867 497.977 64.0253 497.977 55.18V35.092C497.977 26.2467 495.745 19.3853 491.281 14.508C486.9 9.63067 480.659 7.19201 472.557 7.19201C464.539 7.19201 458.297 9.63067 453.833 14.508C449.369 19.3853 447.137 26.2467 447.137 35.092V55.18C447.137 64.0253 449.369 70.8867 453.833 75.764C458.297 80.6413 464.539 83.08 472.557 83.08ZM892.304 81.344C898.421 87.296 906.564 90.272 916.732 90.272C926.817 90.272 934.505 87.4613 939.796 81.84C945.169 76.136 947.856 68.4067 947.856 58.652V57.04H939.92V58.9C939.92 66.0093 938.019 71.8373 934.216 76.384C930.496 80.848 924.668 83.08 916.732 83.08C908.713 83.08 902.431 80.6413 897.884 75.764C893.42 70.8867 891.188 64.0253 891.188 55.18V35.092C891.188 26.2467 893.42 19.3853 897.884 14.508C902.431 9.63067 908.713 7.19201 916.732 7.19201C924.668 7.19201 930.496 9.46534 934.216 14.012C938.019 18.476 939.92 24.2627 939.92 31.372V32.24H947.856V31.62C947.856 21.8653 945.169 14.1773 939.796 8.556C934.505 2.852 926.817 0 916.732 0C906.564 0 898.421 3.01733 892.304 9.052C886.269 15.004 883.252 23.7667 883.252 35.34V54.932C883.252 66.5053 886.269 75.3093 892.304 81.344ZM965.417 1.73601V88.536H1018.37V81.344H973.353V48.608H1014.4V41.416H973.353V8.92801H1017.87V1.73601H965.417ZM807.753 88.536V1.73601H841.729C847.103 1.73601 851.815 2.64534 855.865 4.46401C859.999 6.28268 863.223 8.92801 865.537 12.4C867.935 15.7893 869.133 19.9227 869.133 24.8V26.04C869.133 31.9093 867.728 36.5387 864.917 39.928C862.107 43.2347 858.8 45.4253 854.997 46.5V47.988C857.891 48.0707 860.329 48.98 862.313 50.716C864.297 52.452 865.289 55.2213 865.289 59.024V88.536H857.353V59.892C857.353 57.2467 856.609 55.2213 855.121 53.816C853.716 52.4107 851.567 51.708 848.673 51.708H815.689V88.536H807.753ZM815.689 44.516H840.985C847.433 44.516 852.393 43.028 855.865 40.052C859.42 36.9933 861.197 32.6533 861.197 27.032V26.412C861.197 20.7907 859.461 16.492 855.989 13.516C852.6 10.4573 847.599 8.92801 840.985 8.92801H815.689V44.516ZM737.398 1.73601V88.536H790.346V81.344H745.334V48.608H786.378V41.416H745.334V8.92801H789.85V1.73601H737.398ZM630.957 88.536V1.73601H646.457L672.745 83.824H674.233L700.521 1.73601H716.021V88.536H708.333V6.44801H706.845L680.557 88.536H666.421L640.133 6.44801H638.645V88.536H630.957ZM524.515 1.73601V88.536H532.203V6.44801H533.691L559.979 88.536H574.115L600.403 6.44801H601.891V88.536H609.579V1.73601H594.079L567.791 83.824H566.303L540.015 1.73601H524.515ZM276.941 88.536V1.73601H308.065L325.301 77.376H327.533V1.73601H343.653V88.536H312.529L295.293 12.896H293.061V88.536H276.941ZM0 1.73601V88.536H15.872V13.764H18.104L32.984 88.536H60.016L74.896 13.764H77.128V88.536H93V1.73601H62.62L47.616 77.376H45.384L30.38 1.73601H0Z" fill="black"/>
</svg>



















